<svg width="94" height="94" viewBox="0 0 94 94" fill="none" xmlns="http://www.w3.org/2000/svg">
<g id="ImageSquare">
<path id="Vector" d="M36.7188 38.1875C39.1523 38.1875 41.125 36.2148 41.125 33.7812C41.125 31.3477 39.1523 29.375 36.7188 29.375C34.2852 29.375 32.3125 31.3477 32.3125 33.7812C32.3125 36.2148 34.2852 38.1875 36.7188 38.1875Z" fill="url(#paint0_linear_1376_4466)"/>
<path id="Vector_2" d="M76.3754 11.75H17.6254C16.0678 11.7518 14.5745 12.3713 13.4731 13.4727C12.3717 14.5741 11.7521 16.0674 11.7504 17.625V64.6155L11.75 64.6267L11.7504 76.375C11.7521 77.9326 12.3717 79.4259 13.4731 80.5273C14.5745 81.6287 16.0678 82.2482 17.6254 82.25H76.3754C77.933 82.2482 79.4263 81.6287 80.5276 80.5273C81.629 79.4259 82.2486 77.9326 82.2504 76.375V17.625C82.2486 16.0674 81.629 14.5741 80.5276 13.4727C79.4263 12.3713 77.933 11.7518 76.3754 11.75ZM65.842 41.125C64.7393 40.0249 63.2453 39.407 61.6877 39.407C60.1301 39.407 58.636 40.0249 57.5333 41.125L41.1254 57.5333L33.5295 49.9375C32.4267 48.8376 30.9328 48.2199 29.3752 48.2199C27.8177 48.2199 26.3237 48.8376 25.2209 49.9375L17.6254 57.5328V17.625H76.3754L76.3775 51.6604L65.842 41.125Z" fill="url(#paint1_linear_1376_4466)"/>
</g>
<defs>
<linearGradient id="paint0_linear_1376_4466" x1="34.4143" y1="26.5787" x2="42.1401" y2="28.8737" gradientUnits="userSpaceOnUse">
<stop stop-color="#624AF2" stop-opacity="0.42"/>
<stop offset="1" stop-color="#28ACA6" stop-opacity="0.51"/>
</linearGradient>
<linearGradient id="paint1_linear_1376_4466" x1="28.5647" y1="-10.6202" x2="90.3708" y2="7.74007" gradientUnits="userSpaceOnUse">
<stop stop-color="#624AF2" stop-opacity="0.42"/>
<stop offset="1" stop-color="#28ACA6" stop-opacity="0.51"/>
</linearGradient>
</defs>
</svg>
